<svg enable-background="new 0 0 256 256" viewBox="0 0 256 256" xmlns="http://www.w3.org/2000/svg"><path d="m155.409 141.913h-54.818c-26.704 0-48.353 21.648-48.353 48.353v42.145h151.523v-42.145c0-26.705-21.648-48.353-48.352-48.353z" fill="#cecece"/><path d="m115.258 141.913h-14.667c-26.704 0-48.353 21.648-48.353 48.353v42.145h14.667v-42.145c0-26.705 21.648-48.353 48.353-48.353z" fill="#afafaf"/><path d="m130.291 154.84h-4.581c-8.146 0-14.75-6.604-14.75-14.75v-26.243c0-8.146 6.604-14.75 14.75-14.75h4.581c8.146 0 14.75 6.604 14.75 14.75v26.243c0 8.146-6.604 14.75-14.75 14.75z" fill="#f8af23"/><path d="m110.959 113.847v26.243c0 6.866 4.698 12.619 11.05 14.263v-54.77c-6.351 1.644-11.05 7.398-11.05 14.264z" fill="#f87023"/><path d="m170.193 123.866h-84.386c-11.046 0-20-8.954-20-20v-53.194c0-11.046 8.954-20 20-20h84.387c11.046 0 20 8.954 20 20v53.194c-.001 11.045-8.955 20-20.001 20z" fill="#cecece"/><path d="m80.473 103.866v-53.194c0-11.046 8.954-20 20-20h-14.666c-11.046 0-20 8.954-20 20v53.194c0 11.046 8.954 20 20 20h14.667c-11.046 0-20.001-8.955-20.001-20z" fill="#afafaf"/><path d="m60.67 96.139h5.136v-37.74h-5.136c-6.681 0-12.097 5.416-12.097 12.097v13.546c.001 6.681 5.416 12.097 12.097 12.097z" fill="#afafaf"/><path d="m195.33 96.139h-5.136v-37.74h5.136c6.681 0 12.097 5.416 12.097 12.097v13.546c-.001 6.681-5.416 12.097-12.097 12.097z" fill="#e2e2e2"/><path d="m151.638 86.266h-47.275c-8.054 0-14.583-6.529-14.583-14.583v-4.529c0-8.054 6.529-14.583 14.583-14.583h47.275c8.054 0 14.583 6.529 14.583 14.583v4.529c0 8.054-6.529 14.583-14.583 14.583z" fill="#f46275"/><circle cx="111.701" cy="69.418" fill="#3f3679" r="5.249"/><circle cx="144.299" cy="69.418" fill="#3f3679" r="5.249"/><path d="m149.668 110.527h-43.336c-2.761 0-5-2.239-5-5v-3.478c0-2.761 2.239-5 5-5h43.336c2.761 0 5 2.239 5 5v3.478c0 2.762-2.239 5-5 5z" fill="#707070"/><path d="m131.452 12.616h-6.903c-13.355 0-25.79 6.806-32.988 18.056h72.88c-7.199-11.25-19.634-18.056-32.989-18.056z" fill="#63bce7"/><path d="m135.333 12.828c-1.284-.128-2.576-.212-3.882-.212h-6.903c-13.355 0-25.79 6.806-32.988 18.056h14.667c6.494-10.15 17.256-16.664 29.106-17.844z" fill="#6377e7"/><circle cx="48.574" cy="35.626" fill="#3f3679" r="6.354"/><circle cx="207.426" cy="35.626" fill="#3f3679" r="6.354"/><path d="m177.029 222.815h-98.059c-3.395 0-6.147-2.752-6.147-6.148v-54.994c0-3.395 2.752-6.147 6.147-6.147h98.059c3.395 0 6.148 2.752 6.148 6.147v54.994c0 3.396-2.752 6.148-6.148 6.148z" fill="#707070"/><path d="m188.288 232.411h-120.576l-5.024-6.003c-1.192-1.424-.179-3.592 1.678-3.592h127.268c1.857 0 2.87 2.168 1.678 3.592z" fill="#707070"/><circle cx="128" cy="189.171" fill="#cecece" r="5.476"/><path d="m210.531 134.574v45.993h-13.274l-14.08 14.08-14.08-14.08h-13.274v-45.993z" fill="#63bce7"/><path d="m210.531 134.574v45.993h-13.274l-1.392 1.392v-47.385z" fill="#63e2e7"/><circle cx="198.342" cy="157.57" fill="#f8af23" r="4.827"/><circle cx="183.022" cy="157.57" fill="#f8af23" r="4.827"/><circle cx="167.703" cy="157.57" fill="#f8af23" r="4.827"/><g fill="#3f3679"><path d="m27.323 241.884h-18.003c-.829 0-1.5.671-1.5 1.5s.671 1.5 1.5 1.5h18.003c.829 0 1.5-.671 1.5-1.5s-.671-1.5-1.5-1.5z"/><path d="m246.68 241.884h-18.003c-.829 0-1.5.671-1.5 1.5s.671 1.5 1.5 1.5h18.003c.829 0 1.5-.671 1.5-1.5s-.671-1.5-1.5-1.5z"/><path d="m218.479 241.884h-180.958c-.829 0-1.5.671-1.5 1.5s.671 1.5 1.5 1.5h180.959c.829 0 1.5-.671 1.5-1.5s-.672-1.5-1.501-1.5z"/><path d="m9.32 233.911h42.918 15.474 120.575 15.474 42.918c.829 0 1.5-.671 1.5-1.5s-.671-1.5-1.5-1.5h-41.418v-40.645c0-2.749-.237-5.502-.683-8.199h5.953c.829 0 1.5-.671 1.5-1.5v-45.993c0-.829-.671-1.5-1.5-1.5h-54.709c-.829 0-1.5.671-1.5 1.5v5.839h-7.798c.002-.109.016-.214.016-.323v-14.724h23.653c11.855 0 21.5-9.645 21.5-21.5v-6.227h3.636c7.497 0 13.597-6.1 13.597-13.597v-13.546c0-7.497-6.1-13.597-13.597-13.597h-2.12l15.413-20.368c.5-.661.37-1.602-.291-2.102-.66-.499-1.601-.369-2.102.291l-14.537 19.21v-3.259c0-11.855-9.645-21.5-21.5-21.5h-4.963c-7.568-11.315-20.123-18.056-33.778-18.056h-6.903c-13.655 0-26.211 6.741-33.778 18.056h-4.963c-11.855 0-21.5 9.645-21.5 21.5v3.259l-14.537-19.209c-.5-.661-1.441-.79-2.102-.291-.661.5-.791 1.441-.291 2.102l15.413 20.367h-2.12c-7.497 0-13.597 6.1-13.597 13.597v13.546c0 7.497 6.1 13.597 13.597 13.597h3.636v6.227c0 11.855 9.645 21.5 21.5 21.5h23.653v14.724c0 .109.014.215.016.323h-8.885c-27.489 0-49.853 22.364-49.853 49.853v40.645h-41.417c-.829 0-1.5.671-1.5 1.5s.671 1.5 1.5 1.5zm59.093-3-4.575-5.466c-.254-.303-.151-.614-.096-.733.056-.12.228-.397.624-.397h14.604 98.059 14.604c.396 0 .568.277.624.397.056.119.158.43-.096.732l-4.575 5.466h-119.173zm5.91-14.244v-54.994c0-2.563 2.085-4.647 4.648-4.647h75.352v23.541c0 .829.671 1.5 1.5 1.5h12.653l13.202 13.201v21.399c0 2.563-2.085 4.647-4.648 4.647h-98.059c-2.563.001-4.648-2.084-4.648-4.647zm127.939-26.401v40.645h-10.763l2.963-3.541c.929-1.11 1.126-2.615.513-3.927-.613-1.313-1.894-2.127-3.342-2.127h-8.545c.992-1.29 1.588-2.898 1.588-4.647v-21.399l13.201-13.201h3.663c.477 2.688.722 5.445.722 8.197zm-44.94-54.192h51.709v42.993h-11.774c-.398 0-.779.158-1.061.439l-13.02 13.02-13.02-13.02c-.281-.281-.663-.439-1.061-.439h-11.774v-42.993zm-3 7.339v10.613h-15.718c3.831-2.294 6.652-6.107 7.592-10.613zm51.604-72.917v13.546c0 5.843-4.753 10.597-10.597 10.597h-3.636v-34.74h3.636c5.844 0 10.597 4.753 10.597 10.597zm-81.378-56.38h6.903c11.966 0 23.032 5.579 30.125 15.056h-67.153c7.094-9.477 18.159-15.056 30.125-15.056zm-63.878 80.523c-5.843 0-10.597-4.753-10.597-10.597v-13.546c0-5.843 4.753-10.597 10.597-10.597h3.636v34.74zm6.637 9.227v-7.727-37.74-7.727c0-10.201 8.299-18.5 18.5-18.5h5.753 72.88 5.753c10.201 0 18.5 8.299 18.5 18.5v7.727 37.74 7.727c0 10.201-8.299 18.5-18.5 18.5h-84.386c-10.202 0-18.5-8.299-18.5-18.5zm76.234 21.5v14.724c0 7.306-5.944 13.25-13.25 13.25h-4.581c-7.306 0-13.25-5.944-13.25-13.25v-14.724zm-89.803 64.9c0-25.834 21.018-46.853 46.853-46.853h9.212c.94 4.506 3.761 8.319 7.592 10.613h-38.424c-4.217 0-7.648 3.431-7.648 7.647v54.994c0 1.749.597 3.358 1.588 4.647h-8.545c-1.448 0-2.729.815-3.342 2.127s-.416 2.817.513 3.928l2.963 3.541h-10.762z"/><path d="m151.638 51.07h-47.275c-8.869 0-16.083 7.215-16.083 16.083v4.53c0 8.868 7.215 16.083 16.083 16.083h47.275c8.869 0 16.083-7.215 16.083-16.083v-4.53c0-8.868-7.215-16.083-16.083-16.083zm13.083 20.613c0 7.214-5.869 13.083-13.083 13.083h-47.275c-7.214 0-13.083-5.869-13.083-13.083v-4.53c0-7.214 5.869-13.083 13.083-13.083h47.275c7.214 0 13.083 5.869 13.083 13.083z"/><path d="m149.668 95.549h-43.336c-3.584 0-6.5 2.916-6.5 6.5v3.479c0 3.584 2.916 6.5 6.5 6.5h43.336c3.584 0 6.5-2.916 6.5-6.5v-3.479c0-3.584-2.916-6.5-6.5-6.5zm3.5 9.978c0 1.93-1.57 3.5-3.5 3.5h-11.696v-4.758c0-.829-.671-1.5-1.5-1.5s-1.5.671-1.5 1.5v4.758h-13.944v-4.758c0-.829-.671-1.5-1.5-1.5s-1.5.671-1.5 1.5v4.758h-11.696c-1.93 0-3.5-1.57-3.5-3.5v-3.479c0-1.93 1.57-3.5 3.5-3.5h3.705v4.469c0 .829.671 1.5 1.5 1.5s1.5-.671 1.5-1.5v-4.469h13.463v4.469c0 .829.671 1.5 1.5 1.5s1.5-.671 1.5-1.5v-4.469h13.463v4.469c0 .829.671 1.5 1.5 1.5s1.5-.671 1.5-1.5v-4.469h3.705c1.93 0 3.5 1.57 3.5 3.5z"/><path d="m128 182.194c-3.847 0-6.977 3.13-6.977 6.977s3.13 6.976 6.977 6.976 6.977-3.129 6.977-6.976-3.13-6.977-6.977-6.977zm0 10.953c-2.193 0-3.977-1.784-3.977-3.976 0-2.193 1.784-3.977 3.977-3.977s3.977 1.784 3.977 3.977c0 2.192-1.784 3.976-3.977 3.976z"/><path d="m198.342 163.898c3.489 0 6.327-2.838 6.327-6.328 0-3.489-2.838-6.327-6.327-6.327s-6.327 2.838-6.327 6.327c0 3.49 2.839 6.328 6.327 6.328zm0-9.655c1.834 0 3.327 1.493 3.327 3.327 0 1.835-1.493 3.328-3.327 3.328s-3.327-1.493-3.327-3.328c0-1.834 1.493-3.327 3.327-3.327z"/><path d="m183.022 163.898c3.489 0 6.327-2.838 6.327-6.328 0-3.489-2.838-6.327-6.327-6.327s-6.327 2.838-6.327 6.327c0 3.49 2.839 6.328 6.327 6.328zm0-9.655c1.834 0 3.327 1.493 3.327 3.327 0 1.835-1.493 3.328-3.327 3.328s-3.327-1.493-3.327-3.328c0-1.834 1.493-3.327 3.327-3.327z"/><path d="m174.03 157.57c0-3.489-2.838-6.327-6.327-6.327s-6.327 2.838-6.327 6.327 2.838 6.328 6.327 6.328 6.327-2.838 6.327-6.328zm-6.327 3.328c-1.834 0-3.327-1.493-3.327-3.328 0-1.834 1.493-3.327 3.327-3.327s3.327 1.493 3.327 3.327c0 1.835-1.493 3.328-3.327 3.328z"/></g></svg>